<?xml version="1.0" encoding="UTF-8" standalone="no"?>
<!-- Created with Inkscape (http://www.inkscape.org/) -->

<svg
   width="79.375mm"
   height="79.375mm"
   viewBox="0 0 79.375 79.375"
   version="1.1"
   id="svg1"
   xml:space="preserve"
   inkscape:version="1.4.2 (2aeb623e1d, 2025-05-12)"
   sodipodi:docname="icon.svg"
   xmlns:inkscape="http://www.inkscape.org/namespaces/inkscape"
   xmlns:sodipodi="http://sodipodi.sourceforge.net/DTD/sodipodi-0.dtd"
   xmlns:xlink="http://www.w3.org/1999/xlink"
   xmlns="http://www.w3.org/2000/svg"
   xmlns:svg="http://www.w3.org/2000/svg"><sodipodi:namedview
     id="namedview1"
     pagecolor="#ffffff"
     bordercolor="#000000"
     borderopacity="0.25"
     inkscape:showpageshadow="2"
     inkscape:pageopacity="0.0"
     inkscape:pagecheckerboard="0"
     inkscape:deskcolor="#d1d1d1"
     inkscape:document-units="mm"
     inkscape:zoom="2.8980402"
     inkscape:cx="88.853149"
     inkscape:cy="116.9756"
     inkscape:window-width="2560"
     inkscape:window-height="1301"
     inkscape:window-x="1920"
     inkscape:window-y="27"
     inkscape:window-maximized="1"
     inkscape:current-layer="layer1" /><defs
     id="defs1"><linearGradient
       id="linearGradient4"
       inkscape:collect="always"><stop
         style="stop-color:#ec95ff;stop-opacity:1;"
         offset="0"
         id="stop4" /><stop
         style="stop-color:#b200dc;stop-opacity:1;"
         offset="1"
         id="stop5" /></linearGradient><linearGradient
       inkscape:collect="always"
       xlink:href="#linearGradient4"
       id="linearGradient5"
       x1="106.19321"
       y1="117.92593"
       x2="105.44521"
       y2="136.64189"
       gradientUnits="userSpaceOnUse" /></defs><g
     inkscape:label="Layer 1"
     inkscape:groupmode="layer"
     id="layer1"
     transform="translate(-65.3125,-108.8125)"><g
       id="g5"
       transform="translate(0.96599352,9.0355415)"><path
         id="path1"
         style="fill:url(#linearGradient5);fill-opacity:1"
         d="m 106.84981,112.48822 -7.302915,26.52758 2.837555,0.78135 7.30239,-26.52809 z m -11.815817,3.24683 c -9.185669,3.97149 -22.285331,9.77432 -22.606373,10.09189 -0.42006,0.41553 -0.468212,0.64702 -0.258382,1.24386 0.22947,0.65269 0.899291,0.9951 6.089551,3.11454 2.486458,1.01534 4.789551,1.96327 5.857524,2.40967 l 0.0062,-0.001 5.13302,2.05673 0.0155,-0.007 2.222603,0.9033 1.23145,0.49351 c 0,0 -0.0027,0.001 -0.0078,0.004 l 2.934705,1.19269 1.069185,-2.72077 c -7.846559,-3.14931 -19.134067,-7.79521 -19.133716,-7.90339 2.82e-4,-0.0867 11.06966,-4.93316 18.805571,-8.26203 z m 18.483627,0.33693 -0.83561,2.82361 c 7.69946,3.23626 17.33359,7.43681 17.59169,7.68066 0.0988,0.0934 -5.71716,2.55075 -12.92427,5.46117 -1.86078,0.75143 -3.31813,1.29121 -4.93459,1.94252 l 1.3007,2.7342 c 0.80417,-0.31769 1.54963,-0.60966 2.20813,-0.86507 l 0.015,-0.006 8.38553,-3.35949 0.0574,0.009 c 1.12855,-0.51775 2.85117,-1.25582 4.79919,-2.04794 6.88223,-2.79853 7.38272,-3.13653 6.54327,-4.41575 -0.28963,-0.44138 -4.63303,-2.42434 -15.97836,-7.29516 -2.20086,-0.94488 -4.3084,-1.84531 -6.22804,-2.66186 z" /><path
         id="path3"
         style="fill:#000000"
         d="m 82.388253,134.37113 c -0.866356,0.38733 -2.005011,0.88153 -3.483509,1.51773 -9.24656,3.9788 -9.247088,4.00588 -0.183968,7.65122 3.42742,1.37856 6.179606,2.55836 6.115906,2.62206 -0.06366,0.0637 -2.883831,1.32213 -6.266801,2.79673 -5.36998,2.34073 -6.18269,2.77286 -6.40426,3.40289 -0.2051,0.58321 -0.155101,0.81972 0.261999,1.233 0.28385,0.28127 7.36235,3.30892 15.72979,6.72775 11.08269,4.52825 15.42906,6.18861 16.00729,6.11591 1.25476,-0.1577 30.85481,-12.22132 31.45183,-12.81834 0.43634,-0.43635 0.48927,-0.67132 0.28319,-1.25729 -0.22039,-0.62669 -0.95909,-1.02228 -5.67563,-3.04219 -2.98216,-1.27714 -5.83596,-2.51462 -6.34225,-2.7497 l -0.92087,-0.42737 6.32365,-2.56831 c 9.09661,-3.69472 9.09732,-3.73613 0.11317,-7.5427 -1.38289,-0.58592 -2.67938,-1.14224 -3.73879,-1.603 -1.21197,0.51329 -2.59672,1.1036 -3.7822,1.61851 3.49274,1.47901 8.59647,3.77336 8.44444,3.86539 -0.12501,0.0757 -6.01683,2.47213 -13.09274,5.32526 -7.07592,2.85314 -13.08857,5.17618 -13.36145,5.16248 -0.49148,-0.0247 -25.847451,-10.28628 -26.136911,-10.57765 -0.08276,-0.0833 2.48018,-1.28266 5.69526,-2.66547 l 2.73575,-1.17668 c -1.22427,-0.52933 -2.605759,-1.1167 -3.772896,-1.61023 z m 36.614307,13.34802 5.75107,2.45825 c 3.16285,1.35189 5.65821,2.53554 5.54539,2.63084 -0.11281,0.0953 -5.92015,2.47714 -12.90515,5.2927 -6.985,2.81556 -12.93813,5.15647 -13.22917,5.20227 -0.43384,0.0683 -26.077026,-10.15862 -26.478486,-10.56008 -0.12804,-0.12804 10.85332,-4.963 11.27218,-4.963 0.13129,0 3.467015,1.30968 7.412985,2.91041 3.945971,1.60073 7.373141,2.91204 7.616071,2.91404 0.24293,0.002 3.721,-1.32153 7.72873,-2.94091 z" /></g></g></svg>
